<?xml version="1.0" encoding="UTF-8"?><svg xmlns="http://www.w3.org/2000/svg" xmlns:xlink="http://www.w3.org/1999/xlink" contentScriptType="text/ecmascript" width="375pt" zoomAndPan="magnify" contentStyleType="text/css" viewBox="0 0 375 374.999991" height="374.999991pt" preserveAspectRatio="xMidYMid meet" version="1.2"><defs><g/><clipPath xml:id="clip1" id="clip1"><path d="M 241.605469 131.578125 L 295.605469 131.578125 L 295.605469 151.828125 L 241.605469 151.828125 Z M 241.605469 131.578125 "/></clipPath></defs><g xml:id="surface1" id="surface1"><g style="fill:rgb(100%,100%,100%);fill-opacity:1;"><g transform="translate(44.243399, 196.557556)"><path style="stroke:none;" d="M 4.515625 -62.0625 L 23.78125 -62.0625 C 29.59375 -62.0625 34.226562 -60.820312 37.6875 -58.34375 C 41.15625 -55.863281 42.890625 -51.835938 42.890625 -46.265625 C 42.890625 -40.046875 40.304688 -35.609375 35.140625 -32.953125 C 43.960938 -31.398438 48.375 -26.179688 48.375 -17.296875 C 48.375 -12.085938 46.566406 -7.898438 42.953125 -4.734375 C 39.347656 -1.578125 34.382812 0 28.0625 0 L 4.515625 0 Z M 18.65625 -37.765625 L 19.78125 -37.765625 C 22.945312 -37.765625 25.304688 -38.316406 26.859375 -39.421875 C 28.410156 -40.523438 29.1875 -42.332031 29.1875 -44.84375 C 29.1875 -49.050781 26.050781 -51.15625 19.78125 -51.15625 L 18.65625 -51.15625 Z M 18.65625 -10.90625 L 23.09375 -10.90625 C 30.019531 -10.90625 33.484375 -13.210938 33.484375 -17.828125 C 33.484375 -20.585938 32.613281 -22.566406 30.875 -23.765625 C 29.144531 -24.972656 26.550781 -25.578125 23.09375 -25.578125 L 18.65625 -25.578125 Z M 18.65625 -10.90625 "/></g></g><g style="fill:rgb(100%,100%,100%);fill-opacity:1;"><g transform="translate(94.341739, 196.557556)"><path style="stroke:none;" d="M 4.515625 0 L 4.515625 -38.59375 L 17.828125 -38.59375 L 17.828125 -33.03125 L 17.984375 -33.03125 C 18.078125 -33.226562 18.238281 -33.476562 18.46875 -33.78125 C 18.695312 -34.082031 19.1875 -34.609375 19.9375 -35.359375 C 20.6875 -36.109375 21.488281 -36.785156 22.34375 -37.390625 C 23.195312 -37.992188 24.300781 -38.53125 25.65625 -39 C 27.007812 -39.476562 28.390625 -39.71875 29.796875 -39.71875 C 31.242188 -39.71875 32.671875 -39.515625 34.078125 -39.109375 C 35.484375 -38.710938 36.515625 -38.316406 37.171875 -37.921875 L 38.21875 -37.3125 L 32.65625 -26.03125 C 31 -27.4375 28.691406 -28.140625 25.734375 -28.140625 C 24.128906 -28.140625 22.75 -27.785156 21.59375 -27.078125 C 20.4375 -26.378906 19.617188 -25.523438 19.140625 -24.515625 C 18.671875 -23.515625 18.332031 -22.664062 18.125 -21.96875 C 17.925781 -21.269531 17.828125 -20.71875 17.828125 -20.3125 L 17.828125 0 Z M 4.515625 0 "/></g></g><g style="fill:rgb(100%,100%,100%);fill-opacity:1;"><g transform="translate(131.802654, 196.557556)"><path style="stroke:none;" d="M 8.15625 -4.59375 C 3.875 -8.40625 1.734375 -13.296875 1.734375 -19.265625 C 1.734375 -25.234375 3.960938 -30.132812 8.421875 -33.96875 C 12.890625 -37.800781 18.410156 -39.71875 24.984375 -39.71875 C 31.453125 -39.71875 36.90625 -37.785156 41.34375 -33.921875 C 45.78125 -30.066406 48 -25.175781 48 -19.25 C 48 -13.332031 45.828125 -8.457031 41.484375 -4.625 C 37.148438 -0.789062 31.648438 1.125 24.984375 1.125 C 18.054688 1.125 12.445312 -0.78125 8.15625 -4.59375 Z M 18.46875 -25.796875 C 16.738281 -24.097656 15.875 -21.914062 15.875 -19.25 C 15.875 -16.59375 16.703125 -14.425781 18.359375 -12.75 C 20.015625 -11.070312 22.195312 -10.234375 24.90625 -10.234375 C 27.507812 -10.234375 29.648438 -11.082031 31.328125 -12.78125 C 33.015625 -14.488281 33.859375 -16.648438 33.859375 -19.265625 C 33.859375 -21.921875 32.992188 -24.097656 31.265625 -25.796875 C 29.535156 -27.503906 27.414062 -28.359375 24.90625 -28.359375 C 22.34375 -28.359375 20.195312 -27.503906 18.46875 -25.796875 Z M 18.46875 -25.796875 "/></g></g><g style="fill:rgb(100%,100%,100%);fill-opacity:1;"><g transform="translate(181.524872, 196.557556)"><path style="stroke:none;" d="M 48.59375 -38.59375 L 30.25 -20.15625 L 50.40625 0 L 33.25 0 L 17.828125 -15.421875 L 17.828125 0 L 4.515625 0 L 4.515625 -64.703125 L 17.828125 -64.703125 L 17.828125 -25.125 L 31.296875 -38.59375 Z M 48.59375 -38.59375 "/></g></g><g style="fill:rgb(100%,100%,100%);fill-opacity:1;"><g transform="translate(230.118749, 196.557556)"><path style="stroke:none;" d="M 8.15625 -4.59375 C 3.875 -8.40625 1.734375 -13.296875 1.734375 -19.265625 C 1.734375 -25.234375 3.960938 -30.132812 8.421875 -33.96875 C 12.890625 -37.800781 18.410156 -39.71875 24.984375 -39.71875 C 31.453125 -39.71875 36.90625 -37.785156 41.34375 -33.921875 C 45.78125 -30.066406 48 -25.175781 48 -19.25 C 48 -13.332031 45.828125 -8.457031 41.484375 -4.625 C 37.148438 -0.789062 31.648438 1.125 24.984375 1.125 C 18.054688 1.125 12.445312 -0.78125 8.15625 -4.59375 Z M 18.46875 -25.796875 C 16.738281 -24.097656 15.875 -21.914062 15.875 -19.25 C 15.875 -16.59375 16.703125 -14.425781 18.359375 -12.75 C 20.015625 -11.070312 22.195312 -10.234375 24.90625 -10.234375 C 27.507812 -10.234375 29.648438 -11.082031 31.328125 -12.78125 C 33.015625 -14.488281 33.859375 -16.648438 33.859375 -19.265625 C 33.859375 -21.921875 32.992188 -24.097656 31.265625 -25.796875 C 29.535156 -27.503906 27.414062 -28.359375 24.90625 -28.359375 C 22.34375 -28.359375 20.195312 -27.503906 18.46875 -25.796875 Z M 18.46875 -25.796875 "/></g></g><g style="fill:rgb(100%,100%,100%);fill-opacity:1;"><g transform="translate(279.840978, 196.557556)"><path style="stroke:none;" d="M 7.140625 -4.78125 C 3.535156 -8.71875 1.734375 -13.546875 1.734375 -19.265625 C 1.734375 -24.984375 3.535156 -29.820312 7.140625 -33.78125 C 10.753906 -37.738281 15.347656 -39.71875 20.921875 -39.71875 C 26.035156 -39.71875 30.242188 -38.113281 33.546875 -34.90625 L 33.546875 -64.703125 L 46.875 -64.703125 L 46.875 0 L 33.703125 0 L 33.703125 -4.359375 L 33.546875 -4.359375 C 30.242188 -0.703125 26.035156 1.125 20.921875 1.125 C 15.347656 1.125 10.753906 -0.84375 7.140625 -4.78125 Z M 18.46875 -25.796875 C 16.738281 -24.097656 15.875 -21.914062 15.875 -19.25 C 15.875 -16.59375 16.703125 -14.425781 18.359375 -12.75 C 20.015625 -11.070312 22.195312 -10.234375 24.90625 -10.234375 C 27.507812 -10.234375 29.648438 -11.082031 31.328125 -12.78125 C 33.015625 -14.488281 33.859375 -16.648438 33.859375 -19.265625 C 33.859375 -21.921875 32.992188 -24.097656 31.265625 -25.796875 C 29.535156 -27.503906 27.414062 -28.359375 24.90625 -28.359375 C 22.34375 -28.359375 20.195312 -27.503906 18.46875 -25.796875 Z M 18.46875 -25.796875 "/></g></g><g clip-rule="nonzero" clip-path="url(#clip1)"><path style=" stroke:none;fill-rule:nonzero;fill:rgb(32.159424%,44.309998%,100%);fill-opacity:1;" d="M 241.363281 131.597656 L 275.734375 131.597656 C 286.996094 131.597656 296.113281 140.640625 296.113281 151.808594 L 241.363281 151.808594 Z M 241.363281 131.597656 "/></g></g></svg>